<svg height="512" viewBox="0 0 60 60" width="512" xmlns="http://www.w3.org/2000/svg"><g id="Page-1" fill="none" fill-rule="evenodd"><g id="024---Human-Pose" fill="rgb(0,0,0)" fill-rule="nonzero"><path id="Shape" d="m55 13.423v-1.423c0-1.1045695-.8954305-2-2-2h-.66c-5.6829291-6.36243028-13.8091031-9.99988975-22.34-9.99988975s-16.6570709 3.63745947-22.34 9.99988975h-.66c-1.1045695 0-2 .8954305-2 2v1.423c-6.66658471 10.045949-6.66658471 23.108051 0 33.154v11.423c0 1.1045695.8954305 2 2 2h46c1.1045695 0 2-.8954305 2-2v-11.423c6.6665847-10.045949 6.6665847-23.108051 0-33.154zm-19.826 8.577 9.143-9.143c.7898773-.7570986 2.0361227-.7570986 2.826 0 .7794319.7807702.7794319 2.0452298 0 2.826l-6.317 6.317zm1.808-4.636c.006-.121.018-.241.018-.364.0002472-1.8831202-.7607272-3.6863772-2.11-5h7.456zm-1.982-.364c0 2.7614237-2.2385763 5-5 5s-5-2.2385763-5-5 2.2385763-5 5-5c2.7600532.0033061 4.9966939 2.2399468 5 5zm-12 0c0 .123.012.243.018.364l-5.363-5.364h7.455c-1.3492728 1.3136228-2.1102472 3.1168798-2.11 5zm-10.143-4.143c.7898773-.7570986 2.0361227-.7570986 2.826 0l9.143 9.143h-5.652l-6.317-6.317c-.7794319-.7807702-.7794319-2.0452298 0-2.826zm38.143 11.143c1.1045695 0 2 .8954305 2 2s-.8954305 2-2 2h-15c-.5522847 0-1 .4477153-1 1v12.07c.0000566.2651948.1054506.5195073.293.707l9.12 9.12c.7787666.780655.7787666 2.044345 0 2.825-.1412044.1436044-.3025632.2658868-.479.363-.7763956.4130629-1.7320664.2657235-2.348-.362l-10.44-10.431c-.1874111-.1869379-.4412951-.2919438-.706-.292h-.88c-.2647049.0000562-.5185889.1050621-.706.292l-10.444 10.435c-.6709185.6746045-1.725242.7805814-2.517.253-.1124147-.07244-.2152285-.1587902-.306-.257-.7794319-.7807702-.7794319-2.0452298 0-2.826l9.12-9.12c.1893858-.2144624.2936231-.4908868.293-.777v-12c0-.5522847-.4477153-1-1-1h-15c-1.1045695 0-2-.8954305-2-2s.8954305-2 2-2zm-17 33.73c-.0394398.0139966-.0778647.0307031-.115.05-.4157127.2174505-.8966821.2750815-1.352.162l-.063-.013c-.8684399-.2386693-1.4702266-1.0283609-1.47-1.929l-.0000001-9.98 4.0000001 3.98v6c.0055654.7154762-.3772349 1.3777207-1 1.73zm-7.883.05c-.035252-.0180641-.0716656-.0337654-.109-.047-.6266389-.3508787-1.0128261-1.0148295-1.008-1.733v-6.031l4.0000001-4-.0000001 10.031c.0002729.8991369-.5995048 1.6879305-1.466 1.928l-.066.014c-.4553237.1129874-.9362594.0553605-1.352-.162zm-19.117-28.336c.60534654.3599241 1.29574677.5518554 2 .556h14v10.656l-8.827 8.827c-.7318013.7344409-1.149844 1.7243344-1.166 2.761-2.3147778-1.7692265-4.34118975-3.8867207-6.007-6.277zm12.827 25.693 3.173-3.17v4.033c.0007235.3933671.0590077.7845111.173 1.161-1.4239722-.3560244-2.8168401-.8265563-4.165-1.407.2987241-.169093.5740576-.3765177.819-.617zm17.173.863v-4.016l3.169 3.15c.2445189.2399711.518747.4476585.816.618-1.3457856.5792151-2.7359226 1.0493937-4.157 1.406.113589-.3755264.1715379-.7656707.172-1.158zm9.99-3.757c-.0137277-1.0362902-.4309368-2.0263997-1.163-2.76l-8.827-8.827v-10.656h14c.704134-.0040348 1.3944783-.1956053 2-.555v16.521c-1.6686374 2.3889322-3.6958086 4.5061624-6.01 6.277zm6.01-29.686c-.6050167-.3608142-1.2955732-.5531341-2-.557h-7.346l4.9-4.9c1.362387-1.367514 1.55379-3.5129104.455-5.1h3.991zm-23-20.557c7.3221675-.00328821 14.3526496 2.86966766 19.577 8h-39.154c5.2243504-5.13033234 12.2548325-8.00328821 19.577-8zm-19.012 10c-1.09878999 1.5870896-.907387 3.732486.455 5.1l4.9 4.9h-7.343c-.70416086.0038419-1.39455475.1954262-2 .555v-10.555zm-8.988 18c-.00351605-4.3773312 1.02424414-8.693924 3-12.6v25.2c-1.97575586-3.906076-3.00351605-8.2226688-3-12.6zm5 19.254c2.19129121 2.6150168 4.8113015 4.8383735 7.748 6.575 1.4285766.8490176 2.9266165 1.5752893 4.478 2.171h-12.226zm33.768 8.746c1.4263322-.5477432 2.8078421-1.2057324 4.132-1.968.0304683-.0137301.0601776-.0290855.089-.046 3.0421246-1.7626551 5.7531586-4.0428882 8.011-6.738v8.752zm14.232-40.6c3.9993591 7.9239621 3.9993591 17.2760379 0 25.2z"/></g></g></svg>