<?xml version="1.0" encoding="iso-8859-1"?>
<!-- Generator: Adobe Illustrator 17.1.0, SVG Export Plug-In . SVG Version: 6.00 Build 0)  -->
<!DOCTYPE svg PUBLIC "-//W3C//DTD SVG 1.1//EN" "http://www.w3.org/Graphics/SVG/1.1/DTD/svg11.dtd">
<svg version="1.1" id="Capa_1" xmlns="http://www.w3.org/2000/svg" xmlns:xlink="http://www.w3.org/1999/xlink" x="0px" y="0px"
	 viewBox="0 0 215.129 215.129" style="enable-background:new 0 0 215.129 215.129;" xml:space="preserve">
<path d="M178.554,215.129c-0.2,0-0.402-0.03-0.6-0.093c-0.671-0.211-16.562-5.269-28.823-13.518
	c-12.032-8.093-40.64-27.677-40.928-27.874c-0.673-0.461-0.999-1.284-0.823-2.081c0.032-0.146,3.222-14.737,2.192-20.913
	c-0.698-4.189-4.652-8.967-6.993-11.361l-31.438,16.994c-0.851,0.46-1.909,0.244-2.514-0.511c-0.604-0.756-0.58-1.835,0.056-2.564
	l9.865-11.305l-6.72-20.369c-0.001-0.005-0.003-0.009-0.004-0.013l-1.646-5.027h-5.518c-0.957,0-1.78-0.679-1.963-1.618
	c-0.009-0.042-0.046-0.241-0.099-0.586l-23.843,5.036c-0.533,0.11-1.088,0.002-1.538-0.304s-0.756-0.782-0.847-1.318
	c-0.073-0.432-1.792-10.636-1.798-17.583c-0.009-12.861,2.646-25.842,7.892-38.581c5.462-13.266,17.49-32.804,33.415-44.211
	c14.145-10.13,36.94-21.135,65.212-16.044c29.573,5.326,37.005,21.707,37.307,22.402c0.322,0.741,0.166,1.604-0.396,2.187
	c-0.001,0.001-6.188,6.408-10.829,11.271c-3.216,3.369-7.645,9.146-9.936,12.204c0.585,0.267,0.942,0.446,1.049,0.501
	c0.941,0.479,1.347,1.607,0.927,2.576l-9.897,22.836c0.997,0.765,2.381,1.895,3.535,3.1c1.029,1.073,2.079,2.401,2.868,3.456
	c5.161-4.539,7.646-8.188,7.683-8.243c0.468-0.696,1.324-1.024,2.138-0.829c0.815,0.2,1.42,0.887,1.513,1.722
	c0.072,0.658,7.308,65.979,8.398,74.267c1.104,8.392,2.029,14.973,2.029,14.977c0.111,0.795-0.263,1.58-0.951,1.993
	c-0.687,0.412-1.556,0.377-2.206-0.098l-5.5-4c-0.438-0.318-0.727-0.8-0.804-1.335l-3.723-26.148l-22.328-7.923L140.204,134
	l22.885,8.247c0.708,0.255,1.213,0.886,1.307,1.632c0.033,0.263,3.342,26.451,5.959,41.71c2.548,14.869,9.813,26.347,9.885,26.461
	c0.454,0.709,0.416,1.626-0.096,2.294C179.757,214.847,179.166,215.129,178.554,215.129z M111.566,171.098
	c5.393,3.689,29.128,19.924,39.798,27.102c7.726,5.197,17.213,9.159,22.866,11.283c-2.501-4.919-6.115-13.277-7.819-23.219
	c-2.307-13.453-5.142-35.303-5.829-40.669l-23.396-8.432c-0.95-0.343-1.496-1.339-1.272-2.323l2.653-11.721
	c0.126-0.558,0.484-1.034,0.985-1.311c0.501-0.274,1.097-0.323,1.634-0.133l25.591,9.08c0.701,0.249,1.206,0.866,1.312,1.603
	l3.773,26.509l1.015,0.738c-0.366-2.675-0.857-6.303-1.39-10.352c-0.921-6.997-6.18-54.264-7.88-69.576
	c-2.991,3.326-8.19,8.288-15.873,12.87c-12.419,7.407-37.125,18.854-49.371,23.8c-8.724,3.523-17.816,5.405-22.002,6.152
	l5.313,16.104l16.813-8.428c0.989-0.494,2.189-0.095,2.685,0.892c0.495,0.988,0.096,2.189-0.892,2.685l-17.479,8.761
	c-0.033,0.422-0.2,0.83-0.487,1.16l-3.342,3.829l22.999-12.433c0.748-0.405,1.67-0.291,2.299,0.282
	c0.328,0.299,8.045,7.404,9.25,14.639C114.487,155.808,112.36,167.198,111.566,171.098z M73.587,114.052l1.508,4.604
	c3.709-0.647,13.058-2.5,21.769-6.018c12.126-4.897,36.565-16.217,48.82-23.526c2.615-1.56,4.929-3.173,6.949-4.743
	c-0.729-0.981-1.727-2.259-2.669-3.241c-1.745-1.821-4.226-3.533-4.25-3.55c-0.001-0.001-0.001-0.001-0.001-0.001
	c-0.336-0.229-20.235-13.602-38.457-9.239c-17.938,4.292-29.266,18.593-32.199,30.063C72.897,106.854,73.467,113.016,73.587,114.052
	z M126.863,4.004c-20.681,0-37.48,8.576-48.653,16.577C61.915,32.253,50.399,52.776,46.165,63.063
	c-5.046,12.253-7.6,24.72-7.591,37.055c0.004,4.812,0.914,11.52,1.417,14.858l22.228-4.694c-0.143-2.769-0.129-6.683,0.457-11.458
	c0.207-1.68,5.449-41.271,39.85-52.413c22.328-7.233,42.064-1.921,50.893,1.368c2.064-2.781,7.139-9.495,10.864-13.396
	c3.496-3.663,7.869-8.202,9.821-10.227c-2.219-3.598-10.823-14.811-33.72-18.934C135.717,4.382,131.204,4.004,126.863,4.004z
	 M66.406,112.494h3.058c-0.122-2.894-0.011-8.317,1.719-15.082c3.222-12.597,15.593-28.285,35.143-32.964
	c16.663-3.984,33.809,5.039,39.618,8.54l8.818-20.346c-6.037-2.55-27.239-10.123-51.004-2.427
	c-25.604,8.293-35.472,35.741-37.111,49.097C65.884,105.509,66.16,110.178,66.406,112.494z"/>
<g>
</g>
<g>
</g>
<g>
</g>
<g>
</g>
<g>
</g>
<g>
</g>
<g>
</g>
<g>
</g>
<g>
</g>
<g>
</g>
<g>
</g>
<g>
</g>
<g>
</g>
<g>
</g>
<g>
</g>
</svg>
