<svg height="512" viewBox="0 0 512 512" width="512" xmlns="http://www.w3.org/2000/svg"><g id="filled_outline" data-name="filled outline"><path d="m159.425 431.6-30.665 5.634a23.285 23.285 0 0 1 -23.583-9.985 23.285 23.285 0 0 1 -1.453-23.331l4.267-8.533a57.2 57.2 0 0 0 -1.5-53.958l-5.763-10.087a19.66 19.66 0 0 0 -28.865-5.973 19.66 19.66 0 0 0 -5.063 25.833l8.9 14.834a19.363 19.363 0 0 1 0 19.924 57.2 57.2 0 0 0 .543 59.744 57.2 57.2 0 0 0 60.912 25.521l62.845-15.223z" fill="#7a4922"/><path d="m249.115 202.8-54.265 101.622a70.1 70.1 0 0 0 -1.169 47.578l-19.442 23.33a68.7 68.7 0 0 0 -14.814 56.27 68.694 68.694 0 0 0 67.586 56.4h158.67a32 32 0 0 0 -32-32h-16l14.959-20.943a78.789 78.789 0 0 0 9.041-75.057 134.715 134.715 0 0 0 14.019-67.722l-4.444-48a80.074 80.074 0 0 0 -20.575-49.278l-4-4z" fill="#dcdbd6"/><path d="m249.115 202.8-54.265 101.622a70.1 70.1 0 0 0 -1.169 47.578l-19.442 23.33a68.7 68.7 0 0 0 -14.814 56.27 68.534 68.534 0 0 0 9.906 25.033c12.351 19.067 24.785 31.367 48.68 31.367h167.67a32 32 0 0 0 -32-32h-16l14.959-20.943a78.789 78.789 0 0 0 9.041-75.057 134.715 134.715 0 0 0 14.019-67.722l-4.444-48a80.074 80.074 0 0 0 -20.575-49.278l-4-4z" fill="#dcdbd6"/><path d="m353.16 197.89a58.158 58.158 0 0 1 -7.37 7.35 98.089 98.089 0 0 1 -73.65 22.14l-5.21-.57a51.434 51.434 0 0 1 -22.04-7.81c-1.1-.71-2.18-1.46-3.22-2.26l7.44-13.94 97.57-11.8 4 4c.85.95 1.68 1.91 2.48 2.89z" fill="#dcdbd6"/><path d="m353.16 197.89a58.158 58.158 0 0 1 -7.37 7.35 98.089 98.089 0 0 1 -73.65 22.14l-5.21-.57a51.434 51.434 0 0 1 -22.04-7.81c-1.1-.71-2.18-1.46-3.22-2.26l7.44-13.94 97.57-11.8 4 4c.85.95 1.68 1.91 2.48 2.89z" fill="#cdccc8"/><g fill="#dcdbd6"><path d="m249.681 96-56-40a136.84 136.84 0 0 0 29.985 85.482l2.015 2.518-2.847 11.389a51.288 51.288 0 0 0 5.777 38.828 51.287 51.287 0 0 0 38.317 24.588l5.212.579a98.119 98.119 0 0 0 73.65-22.141 58.61 58.61 0 0 0 19.948-33.527 58.606 58.606 0 0 0 -5.049-37.7l-7.008-14.016v-10.1a136.834 136.834 0 0 0 -19.5-70.4l-4.5-7.5-32 64a51.727 51.727 0 0 0 -45.05 6.033z"/><path d="m232 120-6.32 24-2.01-2.52a136.918 136.918 0 0 1 -29.99-85.48z"/><path d="m353.68 101.9v9.51l-25.68-15.41 1.68-72 4.5 7.5a136.84 136.84 0 0 1 19.5 70.4z"/><path d="m192.6 448h-5.84a21.921 21.921 0 0 0 -15.5 6.42 21.92 21.92 0 0 0 -5.295 22.432l3.716 11.148h40l3.716-11.148a21.922 21.922 0 0 0 -5.3-22.432 21.919 21.919 0 0 0 -15.497-6.42z"/></g><path d="m393.681 488a40.046 40.046 0 0 0 -40-40h-.454l5.923-8.293a86.392 86.392 0 0 0 11.227-79.31 142.973 142.973 0 0 0 13.307-68.563c-.005-.1-.013-.2-.022-.294l-4.431-47.859a88.365 88.365 0 0 0 -19.031-49.787 66.524 66.524 0 0 0 7.642-71.456l-6.163-12.327v-8.211a144.865 144.865 0 0 0 -20.639-74.517l-4.5-7.5a8 8 0 0 0 -14.015.538l-29.079 58.159a59.233 59.233 0 0 0 -43.581 7.72l-51.535-36.81a8 8 0 0 0 -12.649 6.51 145.364 145.364 0 0 0 31.278 89.9l-1.886 7.548a59 59 0 0 0 19.161 59.52l-46.453 87.709a7.838 7.838 0 0 0 -.386.844 78.275 78.275 0 0 0 -2.613 48.66l-16.688 20.026a76.461 76.461 0 0 0 -17.556 54.886l-23.224 4.267a15.285 15.285 0 0 1 -16.434-21.87l4.266-8.533a65.068 65.068 0 0 0 -1.707-61.506l-5.763-10.085a27.659 27.659 0 1 0 -47.733 27.954l8.9 14.834a11.34 11.34 0 0 1 0 11.692 65.208 65.208 0 0 0 70.057 97.191l18.374-4.084a30.285 30.285 0 0 0 1.106 4.429l3.716 11.148a8 8 0 0 0 7.59 5.47h40a7.961 7.961 0 0 0 4.11-1.164 77.051 77.051 0 0 0 13.215 1.164h158.67a8 8 0 0 0 8-8zm-234.422-29.879-23.835 5.3a49.2 49.2 0 0 1 -52.86-73.339 27.316 27.316 0 0 0 0-28.156l-8.9-14.834a11.63 11.63 0 0 1 3-15.326 11.658 11.658 0 0 1 17.118 3.543l5.764 10.086a49.1 49.1 0 0 1 1.289 46.411l-4.267 8.533a31.287 31.287 0 0 0 33.637 44.761l23.207-4.265a76.136 76.136 0 0 0 6.57 15.734q-.382.766-.723 1.552zm186.872-27.714-11.973 16.761 3.235-20.7 21.678-43.357a70.484 70.484 0 0 1 -12.94 47.296zm-115.531-273.078 2.846-11.389a8 8 0 0 0 -1.518-6.94l-2.015-2.519a129.36 129.36 0 0 1 -27.188-64.192l42.305 30.221a8 8 0 0 0 9.088.147l2.951-1.968a43.451 43.451 0 0 1 38.081-5.1 8 8 0 0 0 9.686-4.011l25.411-50.822a128.882 128.882 0 0 1 15.434 61.144v10.1a8.007 8.007 0 0 0 .844 3.578l7.008 14.016a50.6 50.6 0 0 1 -12.864 61.5 90.56 90.56 0 0 1 -67.646 20.336l-5.211-.579a43.534 43.534 0 0 1 -32.341-20.751 43 43 0 0 1 -4.871-32.771zm-24.793 316.994-1.892 5.677h-28.469l-1.891-5.677a13.921 13.921 0 0 1 13.206-18.323h5.839a13.921 13.921 0 0 1 13.2 18.323zm24.28-18.07a39.429 39.429 0 0 0 -.939 23.747h-2.137a61.087 61.087 0 0 1 -6.126-.315l.1-.3a29.92 29.92 0 0 0 -28.385-39.385h-5.841a29.741 29.741 0 0 0 -15.142 4.105 60.669 60.669 0 0 1 8.766-63.653l11.97-14.365 33.647 60.554 4.465 28.573zm91.689-33.488-5 32a7.993 7.993 0 0 0 .072 2.86l1.41 6.8a23.4 23.4 0 0 1 -1.151 13.38l-.868 2.2h-26.558v-78.005l37.381-70.238a8 8 0 1 0 -14.124-7.516l-31.218 58.654-26.641-50.624a8 8 0 1 0 -14.158 7.452l32.76 62.251v78.021h-27.507a23.447 23.447 0 0 1 -1.034-18.326l1.067-2.964a8 8 0 0 0 .378-3.945l-5-32a8.02 8.02 0 0 0 -.911-2.65l-39.6-71.28a62.217 62.217 0 0 1 1.071-41.092l45.617-86.134a58.963 58.963 0 0 0 18.282 5.147l5.212.579a104.62 104.62 0 0 0 11.572.64 106.768 106.768 0 0 0 65.878-22.83 72.331 72.331 0 0 1 14.559 39.575q.007.147.021.294l4.431 47.853a126.918 126.918 0 0 1 -13.192 63.555l-32 64a8.019 8.019 0 0 0 -.749 2.343zm11.438 57.235a39.276 39.276 0 0 0 1.059-16.775 7.975 7.975 0 0 0 3.408.775h16a24.043 24.043 0 0 1 22.629 16z"/><path d="m259.681 162a12 12 0 1 0 -12-12 12 12 0 0 0 12 12z"/><circle cx="317.681" cy="132" r="12"/><path d="m288.688 193a7.962 7.962 0 0 0 4.43-1.345l6.368-4.245 8.879 1.48a8.085 8.085 0 0 0 1.325.11 8 8 0 0 0 1.31-15.891l-6.451-1.075-.993-5.465a8 8 0 0 0 -15.742 2.862l1.059 5.828-4.626 3.085a8 8 0 0 0 4.441 14.656z"/></g></svg>