<svg height="512" viewBox="0 0 512 512" width="512" xmlns="http://www.w3.org/2000/svg"><g id="flat"><rect fill="#f92714" height="368" rx="184" width="368" x="24" y="24"/><path d="m24 448 88.8-50.745a220.213 220.213 0 0 0 103.2-133.255h80a220.213 220.213 0 0 0 103.2 133.255l88.8 50.745v40h-464z" fill="#0071bc"/><path d="m460 184h-160a20 20 0 0 1 -20-20 20 20 0 0 1 20-20h28a40 40 0 0 1 40-40h16v-4a36 36 0 0 1 36-36 36 36 0 0 1 36 36v28h4a28 28 0 0 1 28 28 28 28 0 0 1 -28 28z" fill="#eaeaea"/><path d="m240 312 24 88 16-72 24 40 16-40h5.086a220.137 220.137 0 0 1 -29.086-64h-80a220.177 220.177 0 0 1 -47.546 88h47.546z" fill="#eaeaea"/><path d="m399.2 397.255a220.124 220.124 0 0 1 -46.62-35.655 400.891 400.891 0 0 1 -175.804 126.4h311.224v-40z" fill="#005289"/></g></svg>