<svg id="icon" height="512" viewBox="0 0 128 128" width="512" xmlns="http://www.w3.org/2000/svg"><circle cx="64" cy="33.279" fill="#81dafc" r="31.753" transform="matrix(.707 -.707 .707 .707 -4.787 55.002)"/><circle cx="64" cy="32.763" fill="#ffa6b7" r="31.237" transform="matrix(.707 -.707 .707 .707 -4.422 54.851)"/><path d="m95.752 33.277a31.756 31.756 0 0 1 -49.7 26.194 31.146 31.146 0 0 0 8.314 1.112 31.747 31.747 0 0 0 17.912-57.959 31.734 31.734 0 0 1 23.474 30.653z" fill="#ffa6b7"/><path d="m64 66.032a32.753 32.753 0 1 1 32.753-32.753 32.79 32.79 0 0 1 -32.753 32.753zm0-63.506a30.753 30.753 0 1 0 30.753 30.753 30.788 30.788 0 0 0 -30.753-30.753z" fill="#2f3a5a"/><path d="m90.549 55.5-3.086 9-1.822 5.322-.757 2.2-2.578 7.5-1.939 5.676-.639 1.845-2.566 7.51-2.057 5.984-.521 1.513-2.578 7.521-2.164 6.327-.4 1.183-2.59 7.509-.4 1.195a2.589 2.589 0 0 1 -4.9 0l-.4-1.195-2.59-7.509-.4-1.183-2.164-6.327-2.578-7.521-.521-1.513-2.057-5.984-2.566-7.51-.639-1.845-1.939-5.676-2.578-7.5-.757-2.2-1.826-5.322-3.086-9z" fill="#e1b378"/><path d="m93.04 45.836h-58.08a4.832 4.832 0 1 0 0 9.663h58.08a4.832 4.832 0 1 0 0-9.663z" fill="#e1b378"/><path d="m93.041 56.5h-58.082a5.832 5.832 0 0 1 0-11.664h58.082a5.832 5.832 0 0 1 0 11.664zm-58.082-9.664a3.832 3.832 0 0 0 0 7.664h58.082a3.832 3.832 0 0 0 0-7.664z" fill="#2f3a5a"/><g fill="#fff"><path d="m57.436 14.549-2.099 2.099"/><path d="m55.337 17.647a1 1 0 0 1 -.707-1.707l2.1-2.1a1 1 0 1 1 1.414 1.414l-2.1 2.1a.993.993 0 0 1 -.707.293z"/><path d="m58.858 9.748-2.844-.85"/><path d="m58.858 10.749a1.023 1.023 0 0 1 -.287-.042l-2.844-.851a1 1 0 0 1 .573-1.916l2.844.851a1 1 0 0 1 -.286 1.958z"/><path d="m71.985 9.748-2.844-.85"/><path d="m71.985 10.749a1.017 1.017 0 0 1 -.287-.042l-2.844-.851a1 1 0 0 1 .573-1.916l2.844.851a1 1 0 0 1 -.286 1.958z"/><path d="m50.83 11.424-.571 2.913"/><path d="m50.26 15.337a.986.986 0 0 1 -.193-.019 1 1 0 0 1 -.789-1.173l.57-2.913a1 1 0 1 1 1.963.385l-.57 2.912a1 1 0 0 1 -.981.808z"/><path d="m77.175 11.831-2.099 2.099"/><path d="m75.077 14.93a1 1 0 0 1 -.707-1.707l2.1-2.1a1 1 0 1 1 1.414 1.414l-2.1 2.1a1 1 0 0 1 -.707.293z"/><path d="m60.407 18.545 2.693 1.247"/><path d="m63.1 20.792a1 1 0 0 1 -.42-.093l-2.693-1.247a1 1 0 0 1 .84-1.814l2.693 1.247a1 1 0 0 1 -.42 1.907z"/><path d="m50.545 20.506 2.693 1.247"/><path d="m53.237 22.753a1 1 0 0 1 -.42-.093l-2.693-1.247a1 1 0 1 1 .841-1.815l2.693 1.248a1 1 0 0 1 -.421 1.907z"/><path d="m63.787 11.831 1.588 2.508"/><path d="m65.376 15.339a1 1 0 0 1 -.846-.465l-1.587-2.508a1 1 0 1 1 1.689-1.07l1.588 2.504a1 1 0 0 1 -.844 1.535z"/><path d="m80.358 16.667 1.588 2.508"/><path d="m81.947 20.175a1 1 0 0 1 -.845-.465l-1.588-2.51a1 1 0 1 1 1.686-1.068l1.588 2.508a1 1 0 0 1 -.844 1.535z"/><path d="m44.425 16.241 1.587 2.508"/><path d="m46.013 19.75a1 1 0 0 1 -.846-.466l-1.587-2.508a1 1 0 0 1 1.69-1.069l1.587 2.508a1 1 0 0 1 -.31 1.379.988.988 0 0 1 -.534.156z"/><path d="m71.438 16.439-.162 2.964"/><path d="m71.277 20.4h-.056a1 1 0 0 1 -.944-1.053l.163-2.964a1 1 0 1 1 2 .109l-.163 2.964a1 1 0 0 1 -1 .944z"/></g><path d="m40.538 65.5a1 1 0 0 1 -.707-1.707l9-9a1 1 0 0 1 1.414 1.414l-9 9a1 1 0 0 1 -.707.293z" fill="#bf9a71"/><path d="m43.116 73.019a1 1 0 0 1 -.708-1.707l16.521-16.521a1 1 0 1 1 1.415 1.414l-16.521 16.521a1 1 0 0 1 -.707.293z" fill="#bf9a71"/><path d="m45.693 80.516a1 1 0 0 1 -.707-1.707l24.019-24.018a1 1 0 0 1 1.414 1.414l-24.019 24.018a1 1 0 0 1 -.707.293z" fill="#bf9a71"/><path d="m48.271 88.037a1 1 0 0 1 -.707-1.707l31.536-31.539a1 1 0 1 1 1.415 1.414l-31.536 31.539a1 1 0 0 1 -.708.293z" fill="#bf9a71"/><path d="m50.838 95.547a1 1 0 0 1 -.707-1.707l39.049-39.049a1 1 0 0 1 1.414 1.414l-39.049 39.049a1 1 0 0 1 -.707.293z" fill="#bf9a71"/><path d="m53.416 103.044a1 1 0 0 1 -.708-1.706l32.226-32.226a1 1 0 0 1 1.414 1.414l-32.224 32.225a1 1 0 0 1 -.708.293z" fill="#bf9a71"/><path d="m55.994 110.565a1 1 0 0 1 -.707-1.707l24.373-24.373a1 1 0 0 1 1.414 1.415l-24.374 24.372a1 1 0 0 1 -.706.293z" fill="#bf9a71"/><path d="m58.56 118.075a1 1 0 0 1 -.707-1.706l16.547-16.546a1 1 0 0 1 1.415 1.415l-16.547 16.544a1 1 0 0 1 -.708.293z" fill="#bf9a71"/><path d="m61.15 125.584a1 1 0 0 1 -.707-1.707l8.692-8.691a1 1 0 1 1 1.414 1.414l-8.692 8.692a1 1 0 0 1 -.707.292z" fill="#bf9a71"/><path d="m87.462 65.5a1 1 0 0 1 -.707-.293l-9-9a1 1 0 1 1 1.414-1.414l9 9a1 1 0 0 1 -.707 1.707z" fill="#bf9a71"/><path d="m84.884 73.019a1 1 0 0 1 -.707-.293l-16.521-16.521a1 1 0 1 1 1.415-1.414l16.521 16.521a1 1 0 0 1 -.708 1.707z" fill="#bf9a71"/><path d="m82.307 80.516a1 1 0 0 1 -.707-.293l-24.019-24.018a1 1 0 1 1 1.419-1.414l24.014 24.018a1 1 0 0 1 -.707 1.707z" fill="#bf9a71"/><path d="m79.729 88.037a1 1 0 0 1 -.708-.293l-31.54-31.539a1 1 0 1 1 1.419-1.414l31.536 31.539a1 1 0 0 1 -.707 1.707z" fill="#bf9a71"/><path d="m77.162 95.547a1 1 0 0 1 -.707-.293l-39.049-39.049a1 1 0 0 1 1.414-1.414l39.049 39.049a1 1 0 0 1 -.707 1.707z" fill="#bf9a71"/><path d="m74.584 103.044a1 1 0 0 1 -.708-.293l-32.224-32.225a1 1 0 1 1 1.414-1.414l32.226 32.226a1 1 0 0 1 -.708 1.706z" fill="#bf9a71"/><path d="m72.006 110.565a1 1 0 0 1 -.707-.293l-24.373-24.372a1 1 0 0 1 1.414-1.414l24.373 24.373a1 1 0 0 1 -.707 1.707z" fill="#bf9a71"/><path d="m69.44 118.075a1 1 0 0 1 -.708-.293l-16.544-16.544a1 1 0 0 1 1.412-1.415l16.544 16.546a1 1 0 0 1 -.707 1.706z" fill="#bf9a71"/><path d="m66.85 125.584a1 1 0 0 1 -.707-.292l-8.692-8.692a1 1 0 0 1 1.414-1.414l8.692 8.691a1 1 0 0 1 -.707 1.707z" fill="#bf9a71"/><path d="m64 128.526a3.546 3.546 0 0 1 -3.393-2.421l-.405-1.2-23.7-69.082a1 1 0 0 1 .946-1.324h53.1a1 1 0 0 1 .946 1.324l-24.094 70.277a3.55 3.55 0 0 1 -3.4 2.426zm-25.149-72.026 23.649 68.959a1.588 1.588 0 0 0 3-.006l.4-1.188 23.249-67.765z" fill="#2f3a5a"/><path d="m39.4 26.96a11.455 11.455 0 1 0 9.41 17.978c2.945 3.841 8.393 6.428 14.645 6.428 6.688 0 12.455-2.958 15.221-7.247a11.451 11.451 0 1 0 12.44-16.882" fill="#ffa6b7"/><path d="m63.456 52.366c-5.887 0-11.247-2.161-14.615-5.837a12.452 12.452 0 1 1 -9.441-20.569 1 1 0 0 1 0 2 10.455 10.455 0 1 0 8.589 16.408 1 1 0 0 1 .8-.43.977.977 0 0 1 .817.392c2.854 3.723 8.162 6.036 13.852 6.036 6.075 0 11.719-2.665 14.379-6.789a1 1 0 0 1 1.707.043 10.452 10.452 0 1 0 11.356-15.407 1 1 0 1 1 .437-1.951 12.454 12.454 0 1 1 -12.7 19.611c-3.274 4.038-8.942 6.493-15.181 6.493z" fill="#2f3a5a"/></svg>