<?xml version="1.0" encoding="iso-8859-1"?>
<!-- Generator: Adobe Illustrator 19.0.0, SVG Export Plug-In . SVG Version: 6.00 Build 0)  -->
<svg version="1.1" id="Capa_1" xmlns="http://www.w3.org/2000/svg" xmlns:xlink="http://www.w3.org/1999/xlink" x="0px" y="0px"
	 viewBox="0 0 512.013 512.013" style="enable-background:new 0 0 512.013 512.013;" xml:space="preserve">
<g>
	<g>
		<path d="M509.831,110.877c1.401-1.563,2.175-3.588,2.175-5.687V47.948c0.259-9.697-7.371-17.777-17.067-18.075H358.406
			c-9.695,0.298-17.325,8.378-17.067,18.075v57.242c0,2.099,0.774,4.124,2.175,5.687l14.892,16.651v13.278h-204.8v-13.278
			l14.892-16.651c1.401-1.563,2.175-3.588,2.175-5.687V47.948c0.259-9.697-7.371-17.777-17.067-18.075H17.073
			C7.378,30.171-0.252,38.252,0.006,47.948v57.242c0,2.099,0.774,4.124,2.175,5.687l14.892,16.651v286.345
			c-9.421,0.011-17.056,7.646-17.067,17.067v42.667c-0.001,4.712,3.817,8.532,8.529,8.533c0.002,0,0.003,0,0.004,0h494.933
			c4.712,0.001,8.532-3.817,8.533-8.529c0-0.001,0-0.003,0-0.004V430.94c-0.011-9.421-7.645-17.056-17.067-17.067V127.529
			L509.831,110.877z M213.34,157.873v17.067h-25.6c-4.713,0-8.533,3.821-8.533,8.533c0,4.713,3.82,8.533,8.533,8.533h76.8v17.067
			h-59.733c-4.713,0-8.533,3.82-8.533,8.533s3.82,8.533,8.533,8.533h119.467c4.713,0,8.533-3.82,8.533-8.533
			s-3.82-8.533-8.533-8.533h-42.667v-17.067h25.6c4.713,0,8.533-3.821,8.533-8.533c0-4.713-3.82-8.533-8.533-8.533h-76.8v-17.067
			h128v256H315.74V320.54c0-32.99-26.744-59.733-59.733-59.733s-59.733,26.744-59.733,59.733v93.333h-42.667v-256H213.34z
			 M230.406,345.606v8.533c0,4.713,3.82,8.533,8.533,8.533s8.533-3.82,8.533-8.533v-8.533h17.067v8.533
			c0,4.713,3.821,8.533,8.533,8.533c4.713,0,8.533-3.82,8.533-8.533v-8.533h17.067v68.267H213.34v-68.267H230.406z M213.34,328.54
			v-8c0.04-13.36,6.362-25.922,17.067-33.915v41.915H213.34z M247.473,328.54v-49.804c5.631-1.15,11.436-1.15,17.067,0v49.804
			H247.473z M281.606,328.54v-41.915c10.705,7.993,17.027,20.556,17.067,33.915v8H281.606z M17.073,47.948
			c0-0.625,0.242-0.975,0.067-1.008l17-0.012v17.079c0,4.713,3.82,8.533,8.533,8.533s8.533-3.82,8.533-8.533V46.916l25.6-0.018
			v17.109c0,4.713,3.82,8.533,8.533,8.533s8.533-3.82,8.533-8.533V46.886l25.6-0.018v17.139c0,4.713,3.82,8.533,8.533,8.533
			s8.533-3.82,8.533-8.533V46.856l16.7-0.012c0.265,0.304,0.397,0.702,0.367,1.104v53.983l-11.873,13.275H28.946l-11.873-13.275
			V47.948z M136.54,132.806v281.067H34.14V132.806H136.54z M494.94,465.073H17.073V430.94h13.034
			c1.318,0.339,2.672,0.519,4.032,0.533h443.733c1.361-0.015,2.715-0.194,4.032-0.533h13.034V465.073z M375.473,413.873V132.806
			h102.4l0.009,281.067H375.473z M483.067,115.206H370.279l-11.873-13.275V47.948c0-0.625,0.242-0.975,0.067-1.008l17-0.012v17.079
			c0,4.713,3.82,8.533,8.533,8.533s8.533-3.82,8.533-8.533V46.916l25.6-0.018v17.109c0,4.713,3.82,8.533,8.533,8.533
			s8.533-3.82,8.533-8.533V46.886l25.6-0.018v17.139c0,4.713,3.82,8.533,8.533,8.533s8.533-3.82,8.533-8.533V46.856l16.7-0.012
			c0.265,0.304,0.397,0.702,0.367,1.104v53.983L483.067,115.206z"/>
	</g>
</g>
<g>
	<g>
		<path d="M85.34,192.54c-14.138,0-25.6,11.461-25.6,25.6v59.733c-0.001,4.712,3.817,8.532,8.529,8.533c0.002,0,0.003,0,0.004,0
			h34.133c4.712,0.001,8.532-3.817,8.533-8.529c0-0.001,0-0.003,0-0.004V218.14C110.94,204.001,99.478,192.54,85.34,192.54z
			 M93.873,269.34H76.806v-51.2c0-4.713,3.82-8.533,8.533-8.533s8.533,3.82,8.533,8.533V269.34z"/>
	</g>
</g>
<g>
	<g>
		<path d="M426.673,192.54c-14.138,0-25.6,11.461-25.6,25.6v59.733c-0.001,4.712,3.817,8.532,8.529,8.533c0.001,0,0.003,0,0.004,0
			h34.133c4.712,0.001,8.532-3.817,8.533-8.529c0-0.001,0-0.003,0-0.004V218.14C452.273,204.001,440.812,192.54,426.673,192.54z
			 M435.206,269.34H418.14v-51.2c0-4.713,3.82-8.533,8.533-8.533s8.533,3.82,8.533,8.533V269.34z"/>
	</g>
</g>
<g>
	<g>
		<path d="M110.94,354.14H76.806v-17.067h34.133c4.713,0,8.533-3.82,8.533-8.533s-3.82-8.533-8.533-8.533h-51.2
			c-4.713,0-8.533,3.82-8.533,8.533s3.82,8.533,8.533,8.533v17.067c-4.713,0-8.533,3.821-8.533,8.533
			c0,4.713,3.82,8.533,8.533,8.533h34.133v17.067c0,4.713,3.82,8.533,8.533,8.533s8.533-3.82,8.533-8.533v-17.067
			c4.713,0,8.533-3.821,8.533-8.533C119.473,357.96,115.653,354.14,110.94,354.14z"/>
	</g>
</g>
<g>
	<g>
		<path d="M452.273,354.14H418.14v-17.067h34.133c4.713,0,8.533-3.82,8.533-8.533s-3.821-8.533-8.533-8.533h-51.2
			c-4.713,0-8.533,3.82-8.533,8.533s3.821,8.533,8.533,8.533v17.067c-4.713,0-8.533,3.821-8.533,8.533
			c0,4.713,3.821,8.533,8.533,8.533h34.133v17.067c0,4.713,3.82,8.533,8.533,8.533s8.533-3.82,8.533-8.533v-17.067
			c4.713,0,8.533-3.821,8.533-8.533C460.806,357.96,456.986,354.14,452.273,354.14z"/>
	</g>
</g>
<g>
</g>
<g>
</g>
<g>
</g>
<g>
</g>
<g>
</g>
<g>
</g>
<g>
</g>
<g>
</g>
<g>
</g>
<g>
</g>
<g>
</g>
<g>
</g>
<g>
</g>
<g>
</g>
<g>
</g>
</svg>
