<?xml version="1.0" encoding="iso-8859-1"?>
<!-- Generator: Adobe Illustrator 19.0.0, SVG Export Plug-In . SVG Version: 6.00 Build 0)  -->
<svg version="1.1" id="Layer_1" xmlns="http://www.w3.org/2000/svg" xmlns:xlink="http://www.w3.org/1999/xlink" x="0px" y="0px"
	 viewBox="0 0 246.064 246.064" style="enable-background:new 0 0 246.064 246.064;" xml:space="preserve">
<g>
	<g>
		<g>
			<path d="M245.743,24.416c-1.116-1.948-7.724-3.812-14.98-5.312l-2.776-2.192c-9.836-7.756-27.236-6.968-35.072-6.128l2.144-2.96
				l-2.68-0.468c-6.16-1.076-15.912,3.416-21.3,6.26l1.572-4.748l-4.064,2.648c-5.024,3.268-12.068,12.208-16.244,17.86
				c-0.588-4.908-2.428-10.708-3.216-13.044l-0.696-2.056l-2.964,1.884c-0.74-3.164-2.588-5.82-2.692-5.964l-0.88-1.24l-4.944,2.708
				l-2.176-7.656l-1.984,1.508c-3.876,2.948-8.036,8.356-10.356,11.596l-1.336-3.336l-1.732,3.156
				c-7.088,12.932-2.436,34.384-2.224,35.336c0.144,0.58,2.208,8.644,6.46,18.9c-2.204,1.548-4.26,3.264-6.204,5.108
				c0.46-2.408,0.628-4.892,0.364-7.432c-0.46-4.436-2.172-8.944-5.38-14.196c-3.1-5.08-6.864-9.728-11.184-13.82l-2.752,2.904
				c4.064,3.848,7.6,8.224,10.52,13c2.888,4.724,4.416,8.704,4.816,12.524c0.636,6.148-1.584,11.904-4.888,17.888
				c-2.72-7.108-7.06-16.48-13.352-24.364c-5.672-7.112-11.536-14.472-24.268-16.54l-2.812-0.46l1.348,2.552
				c-3.448-0.176-9.66-0.296-13.996,0.708l-2.032,0.472l3.84,5.556c-1.228,0.66-5.3-0.16-5.3-0.16l0.7,2.948
				c0.032,0.14,0.656,2.696,2.268,4.82l-3.008,0.94l0.956,1.552c1.06,1.716,3.752,5.892,6.6,8.808
				c-6.16-0.212-16.408-0.276-21.588,1.296l-4.12,1.252l4.036,1.432c-5.072,2.008-13.844,5.988-16.812,10.48l-1.38,2.088l3.184,0.14
				c-5.276,4.668-16.108,15.436-16.94,25.728l-0.172,2.148c-7.172,10.284-6.164,11.924-5.752,12.596
				c0.848,1.376,5.236,2.508,13.068,3.376l2.364,1.608c8.188,5.576,22.5,3.912,29.64,2.612c0.288-0.204,0.58-0.408,0.868-0.616
				c0.896,1.008,1.948,1.9,3.204,2.568c0.044,0.024,0.096,0.032,0.14,0.056c-2.012,4.684-2.4,9.848-0.896,14.78
				c1.24,4.056,3.68,7.488,6.872,10.136c-2.912,1.952-5.38,4.52-7.072,7.704c-2.704,5.092-3.264,10.932-1.584,16.448
				c0.04,0.124,0.108,0.236,0.148,0.36c-0.968,0.092-1.932,0.236-2.884,0.528c-3.988,1.22-7.26,3.916-9.22,7.6
				c-2.412,4.536-2.3,9.716-0.24,14.032c-1.932,0.884-3.688,2.144-5.14,3.78c-0.812-0.816-1.704-1.56-2.748-2.116
				c-5.816-3.084-13.044-0.876-16.128,4.932c-1.496,2.812-1.808,6.04-0.88,9.084c0.932,3.048,2.996,5.548,5.808,7.044
				c1.776,0.944,3.692,1.396,5.58,1.396c2.368,0,4.624-0.808,6.584-2.14c1.412,2.42,3.448,4.516,6.1,5.924
				c2.328,1.24,4.828,1.824,7.296,1.824c5.592,0,11.012-3.008,13.812-8.28h0.004c0.288-0.54,0.46-1.108,0.68-1.664
				c1.172,1.028,2.424,1.988,3.86,2.752c3.22,1.712,6.68,2.524,10.092,2.524c7.736,0,15.224-4.16,19.1-11.452
				c1.288-2.424,2.052-5.024,2.36-7.672c1.98,0.588,4,0.972,6.056,0.972c2.12,0,4.252-0.316,6.34-0.956
				c5.516-1.684,10.044-5.416,12.752-10.508c1.244-2.344,1.984-4.86,2.308-7.416c2.44,0.912,4.96,1.432,7.468,1.432
				c7.732,0,15.22-4.164,19.096-11.452c2.364-4.452,2.908-9.344,2.068-13.952c1,0.14,2.004,0.232,3.004,0.232
				c7.736,0,15.224-4.16,19.1-11.448c3.872-7.284,3.048-15.76-1.264-22.168c0.216-0.56,0.62-1.192,1.236-1.876
				c4.132-4.572,10.324-6.98,15.756-6.136c5.732,0.892,10.404,5.708,10.64,10.96c0.032,0.744-0.036,1.5-0.2,2.256
				c-2.068-1.092-4.464-1.684-6.76-1.7c-3.34,0.02-6.236,1.248-7.94,3.368c-1.128,1.404-1.648,3.308-1.388,5.092
				c0.22,1.512,0.98,2.788,2.144,3.596c1.036,0.712,2.38,1.076,4,1.084c0.02,0,0.044,0,0.064,0c3.236,0,6.512-1.48,9-4.068
				c0.888-0.92,1.636-1.932,2.236-3c1.696,1.576,2.932,3.62,3.4,5.88c0.62,3.02-0.176,6.324-1.94,9.032
				c-1.356-1.18-3.02-2.024-4.844-2.372c-2.336-0.452-4.62,0-6.268,1.216c-2.096,1.552-2.924,4.32-1.92,6.432
				c0.544,1.14,1.508,1.976,2.788,2.416c1.92,0.66,4.456,0.384,6.624-0.708c1.308-0.66,2.504-1.508,3.556-2.496
				c0.316,0.64,0.536,1.324,0.636,2.028c0.428,2.988-1.252,6.28-3.996,7.828l1.392,2.468c3.784-2.132,6.008-6.532,5.412-10.7
				c-0.2-1.396-0.708-2.716-1.452-3.88c2.492-3.42,3.628-7.776,2.792-11.836c-0.648-3.168-2.5-5.988-5.016-8.028
				c0.404-1.328,0.584-2.692,0.52-4.044c-0.296-6.66-5.904-12.52-13.032-13.632c-6.352-1-13.544,1.768-18.296,7.036
				c-0.408,0.452-0.736,0.896-1.032,1.336c-1.624-1.792-3.516-3.388-5.772-4.588c-3.376-1.796-7.008-2.54-10.572-2.436
				c2.604-7.184-0.284-15.372-7.224-19.06c-3.22-1.712-6.844-2.14-10.364-1.424c-1.028-2.596-2.672-4.852-4.856-6.552
				c0.4-0.5,0.764-1.036,1.072-1.616c1.464-2.752,1.768-5.908,0.86-8.888c-0.908-2.98-2.928-5.428-5.68-6.892
				c-2.756-1.468-5.916-1.764-8.888-0.856c-0.86,0.264-1.656,0.64-2.416,1.08c0.692-1.248,1.356-2.56,1.988-3.9
				c0.164-0.12,0.332-0.232,0.472-0.412c3-3.896,6.512-7.28,10.464-10.128c3.036,6.8,6.964,14.228,11.88,20.948
				c6.6,9.004,13.428,18.316,28.048,22.108l3.632,0.944l-1.616-3.216c4.044,0.572,10.928,1.308,15.76,0.584l2.6-0.384l-4.344-6.772
				l5.4-1.628l-0.368-1.556c-0.044-0.168-0.78-3.224-2.636-5.876l3.44-0.8l-1.144-1.988c-1.224-2.12-4.32-7.276-7.588-11.016
				c7.136,0.896,18.6,1.992,24.448,0.684l4.936-1.104l-4.676-2.136c5.852-1.884,15.784-5.696,19.14-10.736l1.504-2.256l-3.696-0.508
				c6.008-5.004,18.388-16.724,19.192-28.936l0.168-2.508C247.367,27.24,246.171,25.164,245.743,24.416z M26.211,230.576
				c-2.412,1.98-5.808,2.52-8.724,0.972c-1.876-1-3.248-2.668-3.872-4.7c-0.624-2.032-0.416-4.184,0.584-6.064
				c1-1.876,2.668-3.252,4.704-3.876c0.768-0.236,1.556-0.352,2.336-0.352c1.284,0,2.56,0.316,3.728,0.936
				c0.928,0.492,1.668,1.204,2.316,1.992C25.503,223.052,25.219,226.984,26.211,230.576z M192.535,153.616
				c-1.952,2.032-4.488,3.196-6.956,3.196c-0.964-0.04-1.892-0.196-2.452-0.584c-0.648-0.448-0.876-1.156-0.948-1.668
				c-0.144-1.004,0.156-2.116,0.792-2.908c1.152-1.432,3.3-2.296,5.748-2.312c0.024,0,0.044,0,0.068,0
				c2.02,0,3.988,0.564,5.716,1.544C193.987,151.864,193.327,152.792,192.535,153.616z M193.375,171.948
				c-1.464,0.74-3.244,0.964-4.432,0.556c-0.56-0.192-0.932-0.5-1.144-0.948c-0.416-0.868,0.068-2.212,1.044-2.936
				c0.744-0.544,1.728-0.832,2.812-0.832c0.408,0,0.824,0.04,1.248,0.12c1.34,0.252,2.576,0.9,3.572,1.796
				C195.559,170.604,194.519,171.372,193.375,171.948z M115.519,131.028c2.692-1.564,5.744-2.44,8.872-2.44
				c2.784,0,5.612,0.664,8.244,2.06c8.576,4.56,11.844,15.248,7.28,23.828c-4.232,7.972-13.748,11.26-21.964,8.032
				c-0.14-1.424-0.416-2.84-0.844-4.24c-1.324-4.324-4.012-7.92-7.532-10.616c1.348-1.412,2.576-2.948,3.52-4.72
				C115.063,139.224,115.863,135.12,115.519,131.028z M112.015,172.848c-2.208,4.16-5.904,7.208-10.404,8.584
				c-4.276,1.304-8.768,0.904-12.764-1.02c-0.752-5.136-3.292-9.952-7.396-13.412c2.812-1.904,5.244-4.456,6.948-7.656
				c0.912-1.712,1.456-3.508,1.856-5.316c1.24,0.22,2.488,0.372,3.748,0.372c2.12,0,4.252-0.316,6.34-0.956
				c2.292-0.7,4.356-1.828,6.244-3.184c3.18,2.24,5.564,5.388,6.72,9.168C114.683,163.928,114.223,168.696,112.015,172.848z
				 M109.583,141.072c-2.208,4.156-5.904,7.204-10.404,8.58c-4.5,1.38-9.264,0.916-13.424-1.292
				c-8.576-4.56-11.844-15.248-7.28-23.828c3.16-5.952,9.272-9.344,15.584-9.344c2.788,0,5.612,0.664,8.244,2.06
				c4.156,2.208,7.204,5.904,8.58,10.408C112.251,132.152,111.795,136.92,109.583,141.072z M60.395,120.088
				c-2.348-1.248-4.928-1.568-7.372-1.16c-0.816-3.88-0.432-8.028,1.572-11.796c2.208-4.156,5.904-7.204,10.404-8.58
				c1.704-0.52,3.444-0.78,5.176-0.78c2.844,0,5.664,0.696,8.248,2.072c4.952,2.632,8.056,7.328,8.984,12.46
				c-5.152,1.66-9.7,5.216-12.44,10.364c-1.708,3.212-2.42,6.66-2.424,10.068c-2.04,0.284-4.136,0.196-6.204-0.256
				C67.223,127.616,64.983,122.528,60.395,120.088z M103.967,111.46c-0.324,0.612-0.584,1.236-0.812,1.868
				c-3.836-1.796-7.94-2.404-11.896-1.884c-0.64-3.408-2.072-6.632-4.224-9.396c0.22-0.944,0.536-1.876,1.004-2.756
				c2.088-3.932,6.124-6.176,10.296-6.176c1.84,0,3.708,0.436,5.444,1.36c1.172,0.624,2.136,1.464,2.984,2.392
				c-0.724,3.256-0.008,6.632,1.9,9.3C106.779,107.528,105.131,109.272,103.967,111.46z M44.619,124.904
				c-1.904,3.588-1.732,7.728,0.076,11.056c-5.972,1.064-16.952,2.36-24.444-0.644l8.096-2.416l-7.672-0.576
				c-7.336-0.548-15.904-1.688-17.82-2.656c0.44-2.06,5.056-9.08,9.356-14.784l5.588-7.416l-8.1,5.812
				c3.372-11.18,17.864-22.632,18.028-22.756l3.024-2.368l-5.124-0.224c4.488-3.852,13.52-7.444,17.148-8.664l3.896-1.308
				l-2.476-0.88c8.34-0.832,20.36-0.044,20.508-0.036l0.2-2.828c-1.544-0.112-5.284-4.496-8.256-8.996l4.56-1.424l-2.436-1.648
				c-1.196-0.812-3.82-3.792-4.284-4.916c1.5,0.248,4.316,0.5,5.932-0.496l1.272-0.784l-3.128-4.524
				c5.744-0.776,13.484-0.116,13.576-0.104l2.596,0.228l-1.016-1.916c9.684,2.448,14.536,8.536,19.772,15.108
				c6.58,8.244,11.016,18.54,13.568,25.608c-0.22,0.368-0.448,0.744-0.676,1.116c-0.252-0.156-0.468-0.348-0.736-0.492
				c-7.604-4.044-17.072-1.144-21.104,6.456c-0.24,0.452-0.432,0.92-0.616,1.388c-1.112-0.928-2.308-1.78-3.64-2.484
				c-5.088-2.708-10.928-3.272-16.444-1.584c-5.516,1.684-10.044,5.416-12.752,10.508c-2.544,4.788-3.076,10.108-1.928,15.012
				C47.303,121.328,45.699,122.88,44.619,124.904z M48.119,126.772c1.388-2.6,4.06-4.084,6.816-4.084c1.216,0,2.452,0.288,3.596,0.9
				c3.752,1.992,5.176,6.664,3.184,10.412c-0.964,1.816-2.58,3.148-4.548,3.752c-1.956,0.6-4.044,0.4-5.864-0.564
				C47.563,135.192,46.131,130.52,48.119,126.772z M52.487,154.36c-1.276-4.172-0.908-8.556,0.908-12.488
				c0.504,0.068,1,0.188,1.512,0.188c1.148,0,2.3-0.172,3.424-0.516c2.824-0.864,5.144-2.748,6.624-5.28
				c1.708,0.428,3.432,0.72,5.156,0.72c0.944,0,1.876-0.092,2.804-0.22c1.176,6.224,4.964,11.904,10.98,15.104
				c0.828,0.44,1.68,0.82,2.548,1.144c-0.324,1.52-0.784,3.028-1.552,4.472c-1.624,3.056-4.116,5.416-7.088,7.036
				c-0.044-0.024-0.076-0.056-0.12-0.08c-5.084-2.708-10.924-3.268-16.444-1.584c-0.66,0.2-1.252,0.524-1.88,0.784
				C56.103,161.392,53.659,158.2,52.487,154.36z M51.999,175.228c2.208-4.156,5.904-7.204,10.404-8.58
				c1.704-0.52,3.444-0.78,5.176-0.78c2.844,0,5.664,0.696,8.248,2.072c8.58,4.56,11.848,15.248,7.284,23.828
				c-1,1.88-2.36,3.412-3.868,4.744c-4.952-2.464-10.556-2.984-15.88-1.352c-2.076,0.632-3.948,1.64-5.7,2.816
				c-3.3-2.248-5.776-5.456-6.96-9.328C49.331,184.152,49.787,179.384,51.999,175.228z M38.463,200.16
				c1.456-2.748,3.9-4.76,6.872-5.668c1.12-0.344,2.264-0.512,3.408-0.516c1.448,2.572,3.436,4.764,5.808,6.556
				c-1.524,1.512-2.9,3.188-3.936,5.14c-1.184,2.228-1.848,4.58-2.196,6.944c-3.16-1.644-6.62-2.048-9.892-1.468
				C36.743,207.832,36.567,203.728,38.463,200.16z M51.499,231.916c-3.016,5.668-10.064,7.828-15.752,4.816
				c-5.664-3.012-7.828-10.076-4.816-15.744c2.092-3.932,6.132-6.176,10.304-6.176c1.84,0,3.708,0.436,5.444,1.36
				C52.347,219.184,54.507,226.244,51.499,231.916z M85.231,224.076c-4.556,8.576-15.244,11.844-23.828,7.288
				c-1.84-0.98-3.324-2.32-4.636-3.792c0.316-4.492-1.368-8.928-4.596-12.14c0.04-2.676,0.612-5.372,1.952-7.896
				c2.208-4.156,5.904-7.204,10.404-8.58c1.704-0.52,3.44-0.78,5.172-0.78c2.844,0,5.664,0.696,8.248,2.072
				c4.156,2.208,7.204,5.904,8.58,10.404C87.903,215.152,87.439,219.92,85.231,224.076z M112.735,205.912
				c-2.208,4.156-5.904,7.204-10.404,8.58c-3.716,1.14-7.584,0.92-11.168-0.408c-0.124-1.54-0.384-3.076-0.844-4.588
				c-1.34-4.38-4.012-8.088-7.592-10.808c1.492-1.476,2.856-3.108,3.892-5.056c1.5-2.82,2.256-5.828,2.432-8.828
				c2.38,0.888,4.864,1.376,7.376,1.376c2.12,0,4.256-0.316,6.344-0.956c1.576-0.484,3.044-1.172,4.44-1.976
				c3.228,2.244,5.648,5.42,6.816,9.236C115.403,196.988,114.943,201.756,112.735,205.912z M141.607,188.476
				c-4.4,8.288-14.516,11.544-22.94,7.644c-0.116-1.608-0.364-3.212-0.844-4.792c-1.292-4.22-3.884-7.752-7.276-10.428
				c1.992-1.724,3.7-3.788,4.976-6.184c1.332-2.508,2.132-5.196,2.412-7.936c2.1,0.668,4.248,1.012,6.384,1.012
				c2.624,0,5.204-0.516,7.64-1.432c1.936,3.148,4.64,5.88,8.136,7.74c0.936,0.496,1.896,0.896,2.868,1.244
				C144.231,179.756,143.771,184.408,141.607,188.476z M150.255,137.42c2.788,0,5.616,0.66,8.244,2.056
				c8.576,4.56,11.844,15.248,7.28,23.828c-4.556,8.576-15.244,11.848-23.828,7.288c-2.716-1.444-4.824-3.548-6.388-5.964
				c3.212-1.948,5.968-4.74,7.856-8.288c3.052-5.748,3.156-12.232,0.98-17.872C146.275,137.8,148.247,137.42,150.255,137.42z
				 M133.199,116.816c0.688-0.124,1.368-0.204,2.048-0.204c1.884,0,3.748,0.46,5.452,1.368c5.664,3.012,7.824,10.076,4.816,15.744
				c-0.084,0.156-0.192,0.28-0.284,0.424c-0.872,0.212-1.724,0.48-2.564,0.8c-1.944-3.176-4.66-5.932-8.18-7.804
				c-0.936-0.496-1.892-0.904-2.864-1.248C133.075,123.06,133.603,119.92,133.199,116.816z M128.883,115.38
				c0.912,2.976,0.608,6.128-0.848,8.872c-0.132,0.24-0.304,0.444-0.448,0.668c-4.412-0.644-8.872,0.116-12.808,2.08
				c-0.048-0.172-0.052-0.344-0.104-0.516c-1.392-4.548-4.236-8.36-8.028-11.096c0.204-0.704,0.468-1.396,0.824-2.068
				c2.092-3.932,6.132-6.176,10.304-6.176c1.84,0,3.708,0.436,5.444,1.36C125.963,109.964,127.975,112.408,128.883,115.38z
				 M115.863,92.048c0.744-0.228,1.504-0.34,2.26-0.34c1.244,0,2.472,0.304,3.596,0.904c1.816,0.968,3.148,2.58,3.752,4.548
				s0.404,4.048-0.564,5.864h-0.004c-0.288,0.544-0.652,1.032-1.052,1.48c-3.816-1.628-7.952-1.628-11.624-0.236
				c-1.928-2.324-2.416-5.64-0.916-8.472C112.279,93.98,113.895,92.648,115.863,92.048z M164.443,111.792l-3.36-0.612l1.164,2.308
				c-10.916-3.984-16.54-11.652-22.632-19.96c-4.324-5.904-7.872-12.52-10.708-18.736l40.552,37.732
				C166.587,112.172,164.495,111.8,164.443,111.792z M171.355,112.736l-42.928-39.944c0.344-0.212,3.74-2.864,4.676-3.42
				l43.992,39.668l2.616,4.076C177.031,113.22,174.015,113.012,171.355,112.736z M176.475,106.956l-42.352-38.192
				c2.112-1.244,4.228-2.48,6.372-3.66l38.204,32.564l-2.192,0.512l2.8,2.192c1.564,1.224,2.564,3.348,3.096,4.796L176.475,106.956z
				 M181.739,96.96l-1.664,0.388l-38.496-32.816c2.048-1.112,4.104-2.212,6.18-3.268l25.744,20.864
				c-0.536-0.08-0.872-0.132-0.896-0.136C172.599,81.992,178.255,91.288,181.739,96.96z M175.687,82.444l-26.844-21.752
				c2.048-1.028,4.128-1.972,6.2-2.94l33.14,26.06C183.371,83.452,178.651,82.856,175.687,82.444z M197.711,81.668l-4.664,1.196
				l2.736,1.252c-0.108,0-0.22,0-0.328,0c-1.672,0-3.456-0.068-5.264-0.176l-33.992-26.732c1.904-0.88,3.788-1.804,5.712-2.632
				l36.22,26.976C198.003,81.588,197.831,81.636,197.711,81.668z M199.519,81.176l-36.376-27.092
				c1.856-0.788,3.736-1.512,5.608-2.252l37.084,27.228C203.503,79.936,201.267,80.668,199.519,81.176z M207.111,78.584
				l-37.116-27.252c2.088-0.812,4.18-1.616,6.288-2.376l37.08,26.74C211.415,76.756,209.259,77.74,207.111,78.584z M214.447,75.084
				l-36.852-26.576c2.024-0.716,4.052-1.424,6.092-2.088l32.328,22.524c-0.756,0.6-1.248,0.96-1.276,0.984l-3.428,2.484l5.904,0.812
				C216.419,73.868,215.463,74.484,214.447,75.084z M216.935,68.204l-31.916-22.24c2.216-0.708,4.46-1.328,6.7-1.972L221.283,64.4
				C219.595,65.972,218.087,67.264,216.935,68.204z M222.123,63.604l-28.996-20.016c2.992-0.844,5.996-1.648,9.02-2.384
				l24.748,17.384C225.303,60.432,223.667,62.124,222.123,63.604z M227.619,57.716l-23.988-16.852c2.18-0.52,4.356-1.06,6.556-1.52
				l16.012,11.084l-0.164,0.212l0.24-0.16l4.468,3.096C229.771,55.012,228.715,56.396,227.619,57.716z M211.715,39.02
				c2.152-0.44,4.328-0.784,6.496-1.164l11.032,8.608l-2.348,3.064L211.715,39.02z M231.371,52.624l-4.068-2.816l3.38-2.22
				l0.256,0.2l0.58-0.748l3.572-2.348C234.339,47.408,232.995,50.08,231.371,52.624z M232.155,42.66l-2.224,2.904l-10.22-7.976
				c1.46-0.248,2.9-0.556,4.364-0.78c1.796-0.276,1.032-3.008-0.752-2.732c-14.068,2.152-27.82,5.488-41.196,9.872l-0.02-0.012
				l-0.016,0.024c-18.524,6.076-55.264,25.128-55.572,25.316c-4.052-9.916-6.032-17.676-6.06-17.788
				c-0.044-0.188-3.752-17.328,0.336-29.332l0.884,2.2l1.784-2.736c0.056-0.084,4.788-7.288,9.452-11.724l1.936,6.804l5.928-3.252
				c0.788,1.452,1.704,3.644,1.576,5.504l-0.24,3.364l4.452-2.832c1.952,6.352,5.092,16.676,5.092,16.676
				c0.096-0.14,7.752-11.272,14.308-17.944l-0.948,2.868l3.948-2.396c3.648-2.216,13.264-7.28,19.82-8.016l-3.412,4.704l4.12-0.712
				c0.224-0.036,20.684-3.48,33.032,2.8l-9.164,2.008l8.652,1.46c8.62,1.456,18.656,3.768,20.64,5.12
				C242.295,28.28,237.075,36.244,232.155,42.66z"/>
			<path d="M97.271,119.08c-0.564-0.448-1.372,0.348-0.8,0.8c3.812,3.032,6.24,7.172,7.028,11.976c0.116,0.72,1.212,0.412,1.092-0.3
				C103.775,126.58,101.219,122.22,97.271,119.08z"/>
			<path d="M129.707,138.536c3.308,2.044,5.052,5.832,4.396,9.676c-0.12,0.712,0.972,1.02,1.092,0.3
				c0.744-4.352-1.152-8.628-4.916-10.956C129.655,137.172,129.087,138.152,129.707,138.536z"/>
			<path d="M134.691,183.652c-0.996,2.74-3.064,4.796-5.808,5.776c-0.684,0.244-0.388,1.34,0.3,1.092
				c3.148-1.124,5.46-3.428,6.6-6.568C136.031,183.264,134.935,182.968,134.691,183.652z"/>
		</g>
	</g>
</g>
<g>
</g>
<g>
</g>
<g>
</g>
<g>
</g>
<g>
</g>
<g>
</g>
<g>
</g>
<g>
</g>
<g>
</g>
<g>
</g>
<g>
</g>
<g>
</g>
<g>
</g>
<g>
</g>
<g>
</g>
</svg>
