<svg id="Layer_35" enable-background="new 0 0 64 64" height="512" fill="white" viewBox="0 0 64 64" width="512" xmlns="http://www.w3.org/2000/svg"><path d="m63 36.387v-1.387c0-.444-.09-10.193-6.968-14.141 1.809-2.103 2.968-4.731 2.968-7.859 0-1.206-.799-3-3-3s-3 1.794-3 3c0 .3-.031.589-.077.872-.234-1.946-.939-4.081-.975-4.188l-.351-1.052-2.11.955c-1.687-5.62-7.877-8.381-8.158-8.503l-.773-.338-.463.707c-.155.237-3.394 5.268-1.811 9.547h-2.662l.993 3.031c-.203-.015-.406-.031-.613-.031-.349 0-.693.027-1.032.076-.286-4.366-2.583-9.01-6.726-10.046-1.73-.433-3.072-.2-4.057.235-1.523-.787-3.357-1.265-5.185-1.265-3.966 0-6.286 2.734-7.331 5.191-2.018.644-4.253 2.3-5.588 5.415l1.838.788c.787-1.836 1.933-3.029 3.095-3.727-.009.117-.014.228-.014.333 0 2.057 1.154 3.063 2.235 3.318 1.416.334 2.951-.454 3.659-1.871.782-1.564.308-2.656-.045-3.167-.561-.814-1.56-1.308-2.772-1.398.914-1.482 2.475-2.882 4.923-2.882 1.178 0 2.323.245 3.332.635-.828.954-1.332 2.193-1.332 3.365 0 1.463.92 2.828 2.288 3.395 1.21.501 2.487.244 3.419-.688 1.188-1.188 1.509-2.647.903-4.109-.265-.64-.697-1.245-1.254-1.793.438-.012.91.043 1.401.166 3.305.826 5.127 5.027 5.232 8.695-1.293.597-2.429 1.575-3.294 2.872-1.358-.994-2.992-1.538-4.695-1.538-4.411 0-8 3.589-8 8v.3c-2.906.872-5 3.589-5 6.682 0 1.215.32 2.389.907 3.424-2.277.845-3.907 3.014-3.907 5.52 0 .755.123 1.462.35 2.11-3.004.326-5.35 2.875-5.35 5.964 0 1.218.361 2.37 1.017 3.344-2.335.821-4.017 3.043-4.017 5.656 0 3.309 2.691 6 6 6 2.288 0 4.297-1.294 5.307-3.238 1.041.787 2.318 1.238 3.653 1.238 2.339 0 4.368-1.331 5.371-3.268 1.043.806 2.333 1.268 3.669 1.268 2.742 0 5.054-1.85 5.768-4.366 1.283 1.447 3.15 2.366 5.232 2.366 3.62 0 6.607-2.763 6.964-6.291 1.142.81 2.533 1.291 4.036 1.291 3.859 0 7-3.14 7-7v-1.486c1.03-.762 3.59-2.847 5.013-5.664 1.103.892 1.987 2.061 1.987 3.15 0 .877-.173 1.584-.434 2.139-.067-.113-.14-.217-.215-.312-.67-.836-1.818-1.155-2.861-.79-.905.318-1.49 1.088-1.49 1.963 0 1.619 1.051 2.752 2.558 2.759-.276.717-.718 1.61-1.405 2.711l1.695 1.06c1.217-1.946 1.818-3.461 2.04-4.639 1.204-.954 2.112-2.655 2.112-4.891 0-2.015-1.491-3.865-3.255-5.104.046-.182.098-.363.132-.55zm-47.797-25.973c.226.328.071.8-.098 1.139-.334.668-.977.921-1.41.819-.628-.148-.695-1.009-.695-1.372 0-.253.06-.643.19-1.105.024-.003.05-.005.074-.008 1.023-.099 1.708.193 1.939.527zm10.09-.121c-.36.359-.776.445-1.239.254-.524-.217-1.054-.818-1.054-1.547 0-.7.366-1.692 1.18-2.391.773.542 1.337 1.161 1.583 1.755.291.704.142 1.317-.47 1.929zm33.278 34.466c-.186 0-.571 0-.577-.736.023-.039.168-.134.376-.134h.015c.211.004.368.1.468.284.036.067.104.229.126.515-.147.048-.285.071-.408.071zm-3.571-31.747c.012-.462.194-1.012 1-1.012s.988.55 1 1c0 7.799-8.26 11.4-13.656 11.928.294-.637.491-1.307.586-1.998 3.928-.488 11.07-3.846 11.07-9.918zm-25.868 35.646c-.825-.792-1.851-1.324-2.982-1.538-.734-.878-1.15-1.978-1.15-3.144 0-.317.026-.608.084-.89.425-2.367 2.492-4.086 4.916-4.086.274 0 .514.018.753.059 2.124.316 3.788 1.98 4.165 4.033-2.906.454-5.226 2.695-5.786 5.566zm-9.461 1.618c-.03-.024-.055-.051-.086-.075-1.031-.776-2.298-1.172-3.585-1.178v-1.023c0-1.106-.306-2.14-.83-3.03.773-1.12 2.374-1.97 3.83-1.97.14 0 .278.006.461.033 2.018.222 3.539 1.882 3.539 3.861 0 .174-.034.32-.055.478-1.419.522-2.587 1.571-3.274 2.904zm5.329-18.276c.908 0 1.791.244 2.557.708 1.311.785 2.179 2.088 2.389 3.62.036.202.054.422.054.672-3.372 0-6.248 2.383-6.864 5.65-.648-.611-1.421-1.093-2.3-1.366.075-.322.125-.647.14-.974.024-.152.024-.288.024-.384 0-1.161-.347-2.254-.972-3.203.147-2.626 2.31-4.723 4.972-4.723zm4-1c0-.195.007-.383.033-.582.164-1.377.865-2.59 1.989-3.427.357-.277.755-.496 1.204-.661.549-.216 1.163-.33 1.774-.33 1.852 0 3.544 1.016 4.418 2.653.387.72.582 1.509.582 2.347v1.306c-2.062.613-3.739 2.138-4.518 4.149-.234.58-.382 1.195-.445 1.833-.613-.436-1.299-.772-2.037-.991v-.297c0-.372-.028-.708-.079-.985-.262-1.92-1.315-3.612-2.897-4.725-.007-.098-.024-.182-.024-.29zm11.668-2.096c-.066-.21-.138-.416-.223-.618.157-.109.297-.229.445-.345-.081.322-.154.643-.222.963zm-.574 15.004c-2.325-.428-4.094-2.461-4.094-4.908 0-.637.113-1.241.343-1.809.591-1.528 1.893-2.668 3.484-3.049.065-.016.132-.023.198-.036-.023.509-.025.84-.025.894v1.618l3.934-1.967c.065 1.392.431 2.606.985 3.665-2.509.783-4.408 2.945-4.825 5.592zm-1.714-30.908h3.546l-1.174-1.593c-1.931-2.621-.287-6.458.571-8.085 1.741.962 5.788 3.619 6.479 7.84l.211 1.287 2.357-1.066c.276.998.63 2.501.63 3.617v2.372c-1.404 1.404-3.318 2.408-5.016 2.997.194-.451.385-.951.548-1.487l3.175-3.175-1.414-1.414-1.308 1.308c-.156-3.119-2.067-6.029-2.153-6.156l-1.664 1.109c.017.024 1.455 2.212 1.769 4.575-.777-.656-1.44-.999-1.49-1.024l-.895 1.789c.014.007 1.311.683 2.193 1.951-.241.94-.61 1.802-.933 2.449-.576-2.637-2.455-4.786-4.926-5.747zm-2.38 3c3.309 0 6 2.691 6 6 0 1.747-.958 3.397-2.598 4.569-1.316-1.603-3.279-2.569-5.402-2.569-.335 0-.67.032-1 .08v-.08c0-1.856-.658-3.643-1.817-5.054 1.123-1.874 2.846-2.946 4.817-2.946zm-11 2c1.511 0 2.953.566 4.065 1.598 1.23 1.124 1.935 2.728 1.935 4.402v.696c-.422.198-.828.424-1.187.702-1.531 1.14-2.54 2.883-2.765 4.771-.006.047-.004.097-.008.144-.362-.111-.73-.2-1.108-.251-.453-3.415-3.386-6.062-6.932-6.062 0-3.309 2.691-6 6-6zm-6.746 8.056c.227-.037.472-.056.746-.056 2.452 0 4.487 1.77 4.91 4.094-2.67.42-4.844 2.349-5.611 4.889-.956-.621-2.085-.97-3.247-.98-.669-.862-1.052-1.913-1.052-3.021 0-2.439 1.823-4.556 4.254-4.926zm-3.557 9.964c.097-.014.199-.02.303-.02 1.253 0 2.451.589 3.208 1.581.518.673.792 1.484.796 2.407l-.022.181c-.01.28-.068.563-.148.844-1.885.054-3.797 1.013-4.972 2.402-.626-.528-1.36-.929-2.165-1.167-.451-.613-.697-1.407-.697-2.322 0-2.022 1.599-3.735 3.697-3.906zm-4.697 7.98c2.206 0 4 1.794 4 4v1.351c-.499.167-.987.384-1.443.684-.145.103-.279.205-.469.351-.615.52-1.101 1.154-1.466 1.846-.924-.701-2.035-1.125-3.207-1.207-.892-.762-1.415-1.842-1.415-3.025 0-2.206 1.794-4 4-4zm.936 13.713c-.342 1.905-1.998 3.287-3.936 3.287-2.206 0-4-1.794-4-4s1.794-4 4-4c1.292 0 2.513.631 3.264 1.687.481.682.736 1.481.736 2.313 0 .225-.022.467-.064.713zm5.024 1.287c-1.157 0-2.254-.497-3.018-1.345.024-.221.058-.446.058-.655 0-1.115-.321-2.183-.901-3.129.223-.745.655-1.428 1.254-1.935.118-.09.237-.18.334-.25 1.436-.944 3.375-.881 4.694.112.311.235.579.501.817.81.525.686.802 1.513.802 2.392 0 2.206-1.812 4-4.04 4zm9.04-2c-1.167 0-2.272-.537-3.03-1.421.019-.191.03-.384.03-.579 0-1.093-.303-2.129-.853-3.046.384-1.406 1.523-2.519 2.965-2.854.38-.095.841-.146 1.301-.072l.109.012c1.037.128 1.963.651 2.616 1.484.564.705.862 1.561.862 2.476 0 2.206-1.794 4-4 4zm11-2c-2.757 0-5-2.243-5-5s2.243-5 5-5 5 2.243 5 5-2.243 5-5 5zm11-5c-2.757 0-5-2.243-5-5 0-2.459 1.788-4.497 4.13-4.912 1.688 1.947 4.026 3.126 5.87 3.679v1.233c0 2.757-2.243 5-5 5zm5.798-8.085c-1.668-.479-7.576-2.624-6.806-8.791l.231-1.854-4.148 2.075c.117-1.621.428-4.16 1.205-6.396 1.294-.099 2.648-.348 3.997-.739l-1.172 2.343 1.789.895 1.298-2.596c.743 1.141 1.436 2.725 1.949 4.609-1.07 1.229-1.985 3.908-2.089 4.223l1.896.633c.179-.536.466-1.285.785-1.976.168 1.162.267 2.388.267 3.659h2c0-3.42-.625-6.471-1.517-8.899.938.108 2.142.33 3.07.794l.895-1.789c-1.649-.824-3.834-1.034-4.864-1.087-.392-.767-.806-1.425-1.225-1.969 1.514-.713 2.947-1.618 4.197-2.71 4.845 2.44 6.051 8.477 6.348 11.241l-2.904-.968v1.387c0 3.741-3.979 7.001-5.202 7.915z"/></svg>