<?xml version="1.0" encoding="iso-8859-1"?>
<!-- Generator: Adobe Illustrator 19.0.0, SVG Export Plug-In . SVG Version: 6.00 Build 0)  -->
<svg version="1.1" id="Capa_1" xmlns="http://www.w3.org/2000/svg" xmlns:xlink="http://www.w3.org/1999/xlink" x="0px" y="0px"
fill="white"
	 viewBox="0 0 512 512" style="enable-background:new 0 0 512 512;" xml:space="preserve">
<g>
	<g>
		<path d="M428.908,21.718C422.198,8.322,408.646,0,393.54,0H118.46c-15.106,0-28.659,8.322-35.369,21.717
			C50.186,87.405,32.064,170.608,32.064,256s18.122,168.595,51.027,234.282C89.802,503.678,103.354,512,118.46,512h275.08
			c15.106,0,28.659-8.322,35.369-21.717c32.906-65.688,51.027-148.891,51.027-234.283S461.814,87.405,428.908,21.718z
			 M393.538,15.001c9.394-0.001,17.808,5.147,21.959,13.435c3.198,6.383,6.244,12.947,9.15,19.661h-29.824
			c-2.723-8.797-5.627-17.403-8.679-25.629c-0.998-2.69-2.238-5.183-3.666-7.467H393.538z M214.174,26.177
			c0.92-6.2,2.246-9.646,3.08-11.178h77.492V15c0.834,1.532,2.16,4.978,3.081,11.178c1.047,7.053,2.053,14.399,3.005,21.918h-89.663
			C212.121,40.577,213.127,33.231,214.174,26.177z M139.918,27.686C142.778,19.979,148.352,15,154.119,15h47.123
			c-0.746,2.561-1.394,5.526-1.906,8.976c-1.15,7.746-2.249,15.839-3.284,24.121h-63.154
			C135.131,41.111,137.476,34.269,139.918,27.686z M96.503,28.436C100.654,20.148,109.068,15,118.46,15h11.061
			c-1.428,2.284-2.668,4.778-3.666,7.468c-3.052,8.227-5.956,16.833-8.679,25.629H87.353C90.259,41.383,93.305,34.819,96.503,28.436
			z M81.21,63.097h262.97c4.142,0,7.5-3.358,7.5-7.5c0-4.142-3.358-7.5-7.5-7.5h-28.232c-1.035-8.282-2.134-16.375-3.284-24.121
			c-0.512-3.449-1.16-6.414-1.906-8.976h47.123c5.767,0,11.341,4.979,14.2,12.686c2.442,6.582,4.786,13.424,7.02,20.411h-2.862
			c-4.142,0-7.5,3.358-7.5,7.5c0,4.142,3.358,7.5,7.5,7.5h54.55c2.169,5.597,4.246,11.284,6.219,17.064H74.991
			C76.964,74.381,79.041,68.694,81.21,63.097z M324.896,151.388c-0.222-4.136-3.756-7.305-7.891-7.087
			c-4.136,0.222-7.31,3.755-7.087,7.891c1.799,33.521,2.711,68.447,2.711,103.809c0,55.829-2.337,111.251-6.759,160.822h-99.74
			c-4.422-49.57-6.759-104.992-6.759-160.822c0-55.831,2.338-111.259,6.761-160.839h99.74c0.733,8.215,1.416,16.626,2.033,25.104
			c0.287,3.946,3.577,6.957,7.472,6.957c0.183,0,0.367-0.007,0.552-0.02c4.131-0.301,7.237-3.894,6.937-8.024
			c-0.589-8.1-1.238-16.145-1.933-24.016h70.873c11.13,49.512,17.017,104.964,17.017,160.839c0,55.869-5.885,111.315-17.013,160.822
			h-70.879v-0.002c4.384-49.666,6.698-105.058,6.698-160.822C327.629,220.371,326.71,185.174,324.896,151.388z M47.064,256
			c0-56.196,8.039-111.338,23.096-160.839h34.654C93.921,144.896,88.177,200.274,88.177,256c0,55.719,5.742,111.092,16.633,160.822
			H70.155C55.101,367.325,47.064,312.19,47.064,256z M118.462,496.999c-9.394,0.001-17.808-5.147-21.959-13.435
			c-3.2-6.389-6.249-12.958-9.157-19.678h29.826c2.724,8.804,5.63,17.416,8.684,25.646c0.998,2.69,2.238,5.183,3.666,7.467H118.462z
			 M154.119,497c-5.767,0-11.341-4.979-14.2-12.686c-2.444-6.587-4.791-13.435-7.026-20.428h63.157
			c1.035,8.283,2.135,16.381,3.286,24.138c0.512,3.449,1.16,6.414,1.906,8.976H154.119z M297.825,485.822
			c-0.92,6.2-2.246,9.645-3.08,11.178h-77.491c-0.834-1.532-2.16-4.978-3.081-11.178c-1.048-7.063-2.055-14.415-3.007-21.936h89.667
			C299.88,471.413,298.873,478.765,297.825,485.822z M372.082,484.314c-2.86,7.707-8.434,12.686-14.201,12.686h-47.123
			c0.746-2.561,1.394-5.526,1.906-8.976c1.15-7.749,2.25-15.848,3.286-24.138h63.157
			C376.871,470.882,374.525,477.73,372.082,484.314z M415.497,483.564C411.346,491.852,402.932,497,393.54,497h-11.061
			c1.428-2.284,2.668-4.778,3.666-7.468c3.052-8.226,5.958-16.838,8.684-25.646h29.826
			C421.746,470.606,418.697,477.176,415.497,483.564z M430.797,448.886H81.204c-2.169-5.597-4.246-11.284-6.218-17.064h52.757
			c4.142,0,7.5-3.358,7.5-7.5c0-4.142-3.358-7.5-7.5-7.5h-7.552C109.062,367.314,103.177,311.867,103.177,256
			c0-55.874,5.886-111.326,17.017-160.839h70.877c-4.385,49.675-6.7,105.073-6.7,160.839c0,55.764,2.314,111.156,6.698,160.822
			h-31.263c-4.142,0-7.5,3.358-7.5,7.5c0,4.142,3.358,7.5,7.5,7.5h277.208C435.042,437.602,432.966,443.289,430.797,448.886z
			 M407.19,416.822c10.892-49.729,16.633-105.101,16.633-160.822c0-55.726-5.743-111.104-16.637-160.839h34.654
			c15.057,49.501,23.095,104.643,23.095,160.839c0.001,56.19-8.036,111.325-23.09,160.822H407.19z"/>
	</g>
</g>
<g>
</g>
<g>
</g>
<g>
</g>
<g>
</g>
<g>
</g>
<g>
</g>
<g>
</g>
<g>
</g>
<g>
</g>
<g>
</g>
<g>
</g>
<g>
</g>
<g>
</g>
<g>
</g>
<g>
</g>
</svg>
