<svg id="Layer_1" enable-background="new 0 0 512 512" height="512" viewBox="0 0 512 512" width="512" fill="white" xmlns="http://www.w3.org/2000/svg"><path d="m455.93 16.313c-1.381-6.18-6.494-10.827-12.778-11.613-61.909-7.738-119.1-5.916-169.983 5.415-64.796 14.427-120.343 44.431-165.106 89.187-69.807 69.877-69.807 183.576.007 253.459 6.734 6.732 13.917 12.852 21.472 18.353v125.886c0 8.284 6.716 15 15 15s15-6.716 15-15v-108.242c23.287 10.775 48.844 16.462 75.285 16.462 47.906 0 92.903-18.633 126.697-52.46 52.835-52.831 41.893-125.624 38.293-166.475-5.498-62.367-10.247-116.229 49.495-154.024 5.35-3.386 8-9.767 6.618-15.948zm-326.65 104.198c52.831-52.821 121.483-82.64 204.882-89.17-35.77 17.427-70.336 42.842-100.516 74.699-59.174 62.462-94.896 142.138-102.54 227.288-59.782-57.816-60.703-153.881-1.826-212.817zm240.651 68.409c4.709 53.408 9.155 103.854-29.627 142.632-28.132 28.16-65.591 43.668-105.479 43.668-26.796 0-52.501-7.009-75.029-20.138 3.077-85.568 36.743-166.252 95.628-228.411 27.056-28.559 58.748-52.144 91.651-68.205 16.042-7.831 32.227-13.809 48.113-17.827-11.79 15.099-19.779 32.369-24.137 52.076-6.864 31.044-3.944 64.17-1.12 96.205z"/></svg>